<svg width="64" height="73" viewBox="0 0 64 73" fill="none" xmlns="http://www.w3.org/2000/svg">
<path d="M0 45.6967C2.15992 45.582 3.98754 44.626 5.48287 42.8287C6.97819 41.0314 7.74247 38.89 7.74247 36.4044C7.74247 38.89 8.47352 41.0314 9.96885 42.8287C11.4642 44.626 13.2918 45.582 15.4517 45.6967C13.2918 45.8114 11.4642 46.7674 9.96885 48.5647C9.2459 49.412 8.67672 50.4163 8.29449 51.5193C7.91225 52.6223 7.7246 53.8017 7.74247 54.989C7.74247 52.5034 7.01142 50.362 5.48287 48.5647C3.98754 46.7674 2.15992 45.8114 0 45.6967ZM7.74247 18.164C11.9294 17.9345 15.4849 16.0608 18.4091 12.5427C21.3333 9.02462 22.7954 4.85647 22.7954 0C22.7954 4.85647 24.2575 9.02462 27.1817 12.5427C30.1059 16.0608 33.6615 17.8963 37.8816 18.164C35.1236 18.3169 32.5981 19.1964 30.2721 20.879C27.9792 22.5233 26.1516 24.7412 24.7892 27.4945C23.46 30.2478 22.7954 33.1922 22.7954 36.4044C22.7954 31.5479 21.3333 27.3415 18.4091 23.8235C15.4849 20.2672 11.9294 18.3934 7.74247 18.164ZM18.7747 59.3484C21.9315 59.1954 24.6231 57.7805 26.8162 55.142C29.0093 52.5034 30.1059 49.3677 30.1059 45.6967C30.1059 49.3677 31.2025 52.5034 33.3956 55.142C35.5888 57.7805 38.2471 59.1954 41.4039 59.3484C38.2471 59.5013 35.5888 60.9162 33.3956 63.5547C31.2025 66.1933 30.1059 69.329 30.1059 73C30.1059 69.329 29.0093 66.1933 26.8162 63.5547C24.7201 60.9912 21.8313 59.4801 18.7747 59.3484ZM41.4039 41.2226C44.5607 41.0697 47.2191 39.6548 49.4123 37.0162C51.6054 34.3777 52.6687 31.242 52.6687 27.5327C52.6687 31.2038 53.7653 34.3394 55.9585 36.978C58.1516 39.6166 60.8432 41.0314 64 41.1844C60.8432 41.3373 58.1516 42.7522 55.9585 45.3908C53.7653 48.0293 52.6687 51.165 52.6687 54.836C52.6687 51.165 51.5722 48.0293 49.4123 45.3908C47.2191 42.7905 44.5607 41.3756 41.4039 41.2226Z" fill="white"/>
</svg>
